<mxfile host="app.diagrams.net" modified="2024-03-12T21:02:19.332Z" agent="Mozilla/5.0 (Macintosh; Intel Mac OS X 10_15_7) AppleWebKit/537.36 (KHTML, like Gecko) Chrome/122.0.0.0 Safari/537.36" version="21.2.7" etag="KatANO6b491bFBSPzQwH" type="github">
  <diagram name="Page-1" id="33BB7W6vFD9baJTC_0oL">
    <mxGraphModel>
      <root>
        <mxCell id="0" />
        <mxCell id="1" parent="0" />
      </root>
    </mxGraphModel>
  </diagram>
</mxfile>
